<?xml version="1.0" encoding="UTF-8" standalone="no"?><!-- Generator: Gravit.io --><svg xmlns="http://www.w3.org/2000/svg" xmlns:xlink="http://www.w3.org/1999/xlink" style="isolation:isolate" viewBox="0 0 800 800" width="800pt" height="800pt"><defs><clipPath id="_clipPath_sEWyvrOleJMY3DXwFN0UCJVcW9s4YgKU"><rect width="800" height="800"/></clipPath></defs><g clip-path="url(#_clipPath_sEWyvrOleJMY3DXwFN0UCJVcW9s4YgKU)"><path d=" M 840 122.872 L 840 122.872 L 736.11 302.815 L 632.219 482.759 L 528.329 302.815 L 424.439 122.872 L 632.219 122.872 L 632.219 122.872 L 840 122.872 Z  M 632.219 122.872 L 736.11 122.872 L 840 122.872 L 840 122.872 L 788.055 212.844 L 736.11 302.815 L 684.164 212.844 L 632.219 122.872 L 632.219 122.872 Z " fill-rule="evenodd" fill="rgb(71,66,60)"/><linearGradient id="_lgradient_0" x1="0.08333333333333338" y1="0.037164750957854376" x2="0.9075757575757574" y2="0.6869731800766281" gradientTransform="matrix(606.897,0,0,800,-2.682,0)" gradientUnits="userSpaceOnUse"><stop offset="1.7391304347826086%" stop-opacity="1" style="stop-color:rgb(255,201,39)"/><stop offset="97.82608695652173%" stop-opacity="1" style="stop-color:rgb(255,127,29)"/></linearGradient><path d=" M 452.49 800 L -2.682 0 L 149.042 0 C 225.168 0 318.369 53.237 357.04 118.809 L 604.215 537.931 L 452.49 800 Z " fill="url(#_lgradient_0)"/></g></svg>