<?xml version="1.0" encoding="UTF-8" standalone="no"?><!-- Generator: Gravit.io --><svg xmlns="http://www.w3.org/2000/svg" xmlns:xlink="http://www.w3.org/1999/xlink" style="isolation:isolate" viewBox="0 0 300 200" width="300pt" height="200pt"><defs><clipPath id="_clipPath_rqheZsV7kQSGu1FULSiCbra9sBUebC42"><rect width="300" height="200"/></clipPath></defs><g clip-path="url(#_clipPath_rqheZsV7kQSGu1FULSiCbra9sBUebC42)"><linearGradient id="_lgradient_1" x1="0.765662434483576" y1="0.79" x2="0.12952908702516497" y2="0.06933333333333291" gradientTransform="matrix(306.924,0,0,200,-26,0)" gradientUnits="userSpaceOnUse"><stop offset="0%" stop-opacity="1" style="stop-color:rgb(255,146,37)"/><stop offset="98.69565217391305%" stop-opacity="1" style="stop-color:rgb(244,190,55)"/></linearGradient><path d=" M 162.789 0 L -26 0 L -26 200 L 280.924 200 L 280.924 200 L 190.846 47.5 L 162.789 0 Z " fill-rule="evenodd" fill="url(#_lgradient_1)"/><path d=" M 248.543 128.72 L 214.271 69.36 L 180 10 L 248.543 10 L 272.292 10 L 317.086 10 L 282.814 69.36 L 248.543 128.72 Z  M 278.978 76.005 L 259.924 43.003 L 240.87 10 L 272.292 10 L 278.978 10 L 317.086 10 L 298.032 43.003 L 278.978 76.005 Z " fill-rule="evenodd" fill="rgb(51,51,51)"/><text transform="matrix(1,0,0,1,24,93.164)" style="font-family:'Roboto';font-weight:700;font-size:28px;font-style:normal;fill:#ffffff;stroke:none;">MORE</text><text transform="matrix(1,0,0,1,24,125.977)" style="font-family:'Roboto';font-weight:700;font-size:28px;font-style:normal;fill:#ffffff;stroke:none;">ON THE WAY!</text></g></svg>